<?xml version="1.0" standalone="no"?>
<!DOCTYPE svg PUBLIC "-//W3C//DTD SVG 20010904//EN"
 "http://www.w3.org/TR/2001/REC-SVG-20010904/DTD/svg10.dtd">
<svg version="1.0" xmlns="http://www.w3.org/2000/svg"
 width="500.000000pt" height="500.000000pt" viewBox="0 0 500.000000 500.000000"
 preserveAspectRatio="xMidYMid meet">
<metadata>
Created by potrace 1.14, written by Peter Selinger 2001-2017
</metadata>
<g transform="translate(0.000000,500.000000) scale(0.100000,-0.100000)"
fill="#000000" stroke="none">
<path d="M0 2500 l0 -2500 2500 0 2500 0 0 2500 0 2500 -2500 0 -2500 0 0
-2500z m1941 424 c9 -11 10 -20 2 -32 -8 -14 -31 -17 -137 -20 l-126 -3 0 -79
0 -79 91 -3 c75 -2 94 -6 103 -21 8 -12 8 -22 0 -35 -9 -14 -28 -18 -103 -20
l-91 -3 0 -84 0 -84 126 -3 c106 -3 129 -6 137 -20 8 -12 7 -21 -2 -32 -11
-13 -39 -16 -167 -16 l-154 0 -10 26 c-6 14 -10 126 -10 249 0 123 4 235 10
249 l10 26 154 0 c128 0 156 -3 167 -16z m328 -4 c76 -39 111 -107 68 -134
-15 -9 -23 -5 -50 27 -55 66 -149 68 -201 6 -25 -29 -26 -36 -26 -151 0 -95 4
-126 17 -149 20 -33 68 -59 110 -59 34 0 88 31 103 60 8 15 19 20 38 18 35 -4
40 -37 12 -76 -72 -97 -227 -100 -310 -6 -41 47 -52 99 -48 229 3 104 5 115
33 160 54 88 166 121 254 75z m757 -139 c29 -18 31 -18 53 0 29 24 100 25 142
4 60 -31 69 -63 69 -233 0 -132 -2 -153 -16 -159 -9 -3 -24 -2 -33 4 -13 8
-17 36 -21 152 -5 135 -6 144 -29 162 -31 25 -47 24 -76 -6 -24 -23 -25 -29
-25 -158 0 -111 -3 -137 -16 -148 -11 -9 -20 -10 -32 -2 -14 8 -18 34 -22 152
-5 135 -6 144 -29 162 -31 25 -47 24 -76 -6 -24 -23 -25 -29 -25 -158 0 -142
-6 -163 -47 -155 -16 3 -18 18 -18 171 l0 169 37 34 c32 29 45 34 85 34 29 0
60 -7 79 -19z m515 0 c22 -18 24 -18 53 0 39 24 109 24 148 2 56 -33 68 -75
68 -231 0 -142 -5 -162 -42 -162 -30 0 -38 35 -38 165 0 69 -4 135 -10 145
-14 26 -57 34 -86 15 -23 -15 -24 -19 -24 -151 0 -141 -8 -174 -40 -174 -32 0
-40 33 -40 169 0 118 -2 133 -20 151 -24 24 -48 25 -78 4 -21 -14 -22 -22 -22
-150 0 -139 -8 -174 -38 -174 -37 0 -42 20 -42 163 0 157 11 196 64 228 41 25
116 25 147 0z m-873 -6 c175 -74 156 -333 -27 -381 -68 -17 -138 0 -188 47
-45 43 -63 85 -63 149 0 144 145 240 278 185z m-1517 -86 l20 -28 -37 -98
c-29 -77 -135 -305 -149 -321 -4 -5 -47 18 -67 35 -15 14 -11 26 57 163 40 82
86 183 101 224 30 81 34 82 75 25z m119 -91 c0 -25 -49 -157 -99 -264 -46 -98
-54 -104 -132 -104 l-28 0 68 138 c38 75 81 171 95 212 15 41 29 81 32 89 6
18 63 -46 64 -71z m1370 -286 c0 -58 6 -66 34 -47 33 24 74 18 107 -14 27 -27
29 -35 29 -106 0 -57 -3 -76 -12 -73 -8 3 -15 31 -18 73 -4 59 -8 71 -32 88
-23 17 -31 18 -57 8 -35 -15 -51 -53 -51 -123 0 -35 -4 -48 -12 -46 -9 3 -14
41 -16 133 -1 71 0 135 2 142 12 30 26 10 26 -35z m916 27 c7 -12 -15 -31 -28
-23 -4 3 -8 12 -8 20 0 17 26 19 36 3z m-1815 -43 c102 -24 175 -79 220 -168
l20 -38 -51 36 c-126 90 -251 96 -560 24 -174 -40 -243 -46 -319 -26 -69 18
-101 38 -125 78 -24 39 -20 51 9 32 64 -42 173 -36 409 21 214 53 308 62 397
41z m839 -31 c0 -11 -12 -15 -49 -15 -30 0 -53 -5 -61 -15 -18 -22 -5 -32 47
-38 54 -6 75 -27 71 -72 -4 -38 -36 -55 -105 -55 -46 0 -53 3 -53 20 0 16 8
19 63 22 54 3 62 5 62 23 0 16 -9 21 -49 26 -70 8 -99 57 -59 101 21 24 133
27 133 3z m431 -14 c57 -57 31 -158 -46 -177 -42 -10 -87 8 -113 46 -69 102
72 218 159 131z m230 0 c24 -24 29 -38 29 -76 0 -75 -62 -120 -136 -97 l-33
10 -3 -42 c-2 -30 -8 -42 -21 -44 -18 -4 -19 4 -15 108 l3 112 33 29 c45 41
102 41 143 0z m208 15 c31 -17 51 -54 51 -97 0 -22 -10 -41 -35 -66 -30 -30
-40 -34 -73 -31 -20 3 -45 8 -54 12 -16 7 -18 2 -18 -38 0 -34 -4 -46 -15 -46
-12 0 -15 18 -15 106 l0 106 34 34 c38 38 77 44 125 20z m101 -92 c0 -80 -3
-105 -12 -102 -9 3 -14 36 -16 106 -2 86 0 102 13 102 12 0 15 -17 15 -106z
m186 91 c31 -21 45 -65 42 -129 -3 -65 -22 -80 -26 -21 -5 78 -13 105 -36 121
-58 37 -106 -16 -106 -117 0 -74 -24 -60 -28 16 -5 96 28 145 98 145 20 0 45
-7 56 -15z m223 0 c35 -18 55 -64 47 -107 -8 -39 -8 -43 0 -88 8 -51 -22 -76
-103 -84 -50 -4 -63 -3 -63 8 0 18 22 26 70 26 22 0 45 7 55 16 19 19 15 51
-6 44 -8 -2 -33 -4 -57 -4 -55 0 -91 34 -99 92 -5 37 -2 45 30 77 39 39 78 45
126 20z m-2145 -109 c87 -26 164 -98 196 -182 l11 -27 -27 18 c-59 38 -91 54
-144 70 -83 24 -247 21 -431 -9 -232 -37 -287 -41 -350 -23 -54 16 -94 48
-118 94 -19 38 -12 41 40 15 74 -37 172 -33 414 17 209 44 328 51 409 27z"/>
<path d="M2534 2701 c-42 -19 -74 -67 -74 -110 0 -40 28 -90 62 -111 66 -40
155 -13 184 55 19 46 18 74 -6 112 -39 64 -101 84 -166 54z"/>
<path d="M2896 2229 c-65 -51 -1 -153 73 -114 48 24 55 72 16 110 -30 30 -54
31 -89 4z"/>
<path d="M3126 2229 c-65 -51 -1 -153 73 -114 48 24 55 72 16 110 -30 30 -54
31 -89 4z"/>
<path d="M3364 2238 c-53 -25 -48 -99 8 -126 35 -16 72 0 89 40 15 35 0 70
-38 87 -28 13 -31 13 -59 -1z"/>
<path d="M3874 2238 c-50 -24 -50 -91 1 -124 33 -22 78 -4 96 37 15 36 0 71
-38 88 -28 13 -31 13 -59 -1z"/>
</g>
</svg>
