<svg xmlns="http://www.w3.org/2000/svg" xmlns:xlink="http://www.w3.org/1999/xlink" width="500" zoomAndPan="magnify" viewBox="0 0 375 374.999991" height="500" preserveAspectRatio="xMidYMid meet" version="1.0"><defs><g/></defs><g fill="#ffffff" fill-opacity="1"><g transform="translate(46.061532, 184.939783)"><g><path d="M 26.046875 0 L 6.46875 0 C 5.75 -0.0625 5.15625 -0.34375 4.6875 -0.84375 C 4.226562 -1.34375 4 -1.953125 4 -2.671875 L 4 -37.046875 C 4 -37.796875 4.257812 -38.425781 4.78125 -38.9375 C 5.300781 -39.445312 5.929688 -39.703125 6.671875 -39.703125 L 26.046875 -39.703125 C 26.785156 -39.703125 27.40625 -39.445312 27.90625 -38.9375 C 28.40625 -38.425781 28.65625 -37.796875 28.65625 -37.046875 C 28.65625 -36.285156 28.40625 -35.644531 27.90625 -35.125 C 27.40625 -34.601562 26.785156 -34.34375 26.046875 -34.34375 L 9.328125 -34.34375 L 9.328125 -22.796875 L 21.5 -22.796875 C 22.257812 -22.796875 22.890625 -22.546875 23.390625 -22.046875 C 23.898438 -21.546875 24.15625 -20.925781 24.15625 -20.1875 C 24.15625 -19.4375 23.898438 -18.816406 23.390625 -18.328125 C 22.890625 -17.835938 22.257812 -17.59375 21.5 -17.59375 L 9.328125 -17.59375 L 9.328125 -5.296875 L 26.046875 -5.296875 C 26.785156 -5.296875 27.40625 -5.039062 27.90625 -4.53125 C 28.40625 -4.019531 28.65625 -3.390625 28.65625 -2.640625 C 28.65625 -1.859375 28.40625 -1.222656 27.90625 -0.734375 C 27.40625 -0.242188 26.785156 0 26.046875 0 Z M 26.046875 0 "/></g></g></g><g fill="#ffffff" fill-opacity="1"><g transform="translate(73.613496, 184.939783)"><g><path d="M 17.921875 0.359375 C 15.921875 0.359375 14.039062 -0.0234375 12.28125 -0.796875 C 10.53125 -1.566406 8.992188 -2.632812 7.671875 -4 C 6.367188 -5.363281 5.347656 -6.945312 4.609375 -8.75 C 3.878906 -10.550781 3.515625 -12.46875 3.515625 -14.5 L 3.515625 -24.96875 C 3.515625 -26.988281 3.878906 -28.898438 4.609375 -30.703125 C 5.347656 -32.503906 6.367188 -34.085938 7.671875 -35.453125 C 8.992188 -36.816406 10.53125 -37.878906 12.28125 -38.640625 C 14.039062 -39.410156 15.921875 -39.796875 17.921875 -39.796875 C 20.890625 -39.796875 23.476562 -39.09375 25.6875 -37.6875 C 27.613281 -36.457031 29.226562 -34.789062 30.53125 -32.6875 C 30.90625 -32.101562 31.09375 -31.535156 31.09375 -30.984375 C 31.09375 -30.273438 30.832031 -29.660156 30.3125 -29.140625 C 29.769531 -28.597656 29.128906 -28.328125 28.390625 -28.328125 C 27.546875 -28.328125 26.894531 -28.660156 26.4375 -29.328125 C 25.476562 -31.003906 24.425781 -32.234375 23.28125 -33.015625 C 21.851562 -33.960938 20.066406 -34.4375 17.921875 -34.4375 C 16.617188 -34.4375 15.40625 -34.191406 14.28125 -33.703125 C 13.15625 -33.210938 12.195312 -32.535156 11.40625 -31.671875 C 10.601562 -30.804688 9.976562 -29.789062 9.53125 -28.625 C 9.09375 -27.46875 8.875 -26.257812 8.875 -25 L 8.875 -14.46875 C 8.875 -13.164062 9.09375 -11.941406 9.53125 -10.796875 C 9.976562 -9.648438 10.601562 -8.65625 11.40625 -7.8125 C 12.195312 -6.9375 13.15625 -6.25 14.28125 -5.75 C 15.40625 -5.257812 16.617188 -5.015625 17.921875 -5.015625 C 20.046875 -5.015625 21.832031 -5.5 23.28125 -6.46875 C 24.5 -7.269531 25.550781 -8.492188 26.4375 -10.140625 C 26.851562 -10.773438 27.492188 -11.09375 28.359375 -11.09375 C 29.078125 -11.09375 29.726562 -10.832031 30.3125 -10.3125 C 30.832031 -9.789062 31.09375 -9.171875 31.09375 -8.453125 C 31.09375 -7.890625 30.90625 -7.328125 30.53125 -6.765625 C 29.164062 -4.617188 27.550781 -2.957031 25.6875 -1.78125 C 23.476562 -0.351562 20.890625 0.359375 17.921875 0.359375 Z M 17.921875 0.359375 "/></g></g></g><g fill="#ffffff" fill-opacity="1"><g transform="translate(105.075354, 184.939783)"><g><path d="M 16 0.359375 C 14.007812 0.359375 12.128906 -0.015625 10.359375 -0.765625 C 8.585938 -1.515625 7.019531 -2.570312 5.65625 -3.9375 C 4.289062 -5.28125 3.226562 -6.847656 2.46875 -8.640625 C 1.707031 -10.441406 1.328125 -12.332031 1.328125 -14.3125 C 1.328125 -16.300781 1.707031 -18.191406 2.46875 -19.984375 C 3.226562 -21.773438 4.289062 -23.351562 5.65625 -24.71875 C 7.019531 -26.082031 8.585938 -27.140625 10.359375 -27.890625 C 12.128906 -28.640625 14.007812 -29.015625 16 -29.015625 C 18 -29.015625 19.894531 -28.632812 21.6875 -27.875 C 23.488281 -27.113281 25.0625 -26.0625 26.40625 -24.71875 C 27.75 -23.351562 28.796875 -21.78125 29.546875 -20 C 30.296875 -18.21875 30.671875 -16.320312 30.671875 -14.3125 C 30.671875 -12.3125 30.296875 -10.414062 29.546875 -8.625 C 28.796875 -6.84375 27.75 -5.28125 26.40625 -3.9375 C 25.0625 -2.59375 23.488281 -1.539062 21.6875 -0.78125 C 19.894531 -0.0195312 18 0.359375 16 0.359375 Z M 16 -4.96875 C 17.300781 -4.96875 18.519531 -5.207031 19.65625 -5.6875 C 20.789062 -6.164062 21.785156 -6.847656 22.640625 -7.734375 C 23.503906 -8.585938 24.171875 -9.582031 24.640625 -10.71875 C 25.117188 -11.851562 25.359375 -13.050781 25.359375 -14.3125 C 25.359375 -15.570312 25.117188 -16.769531 24.640625 -17.90625 C 24.171875 -19.039062 23.503906 -20.039062 22.640625 -20.90625 C 21.785156 -21.769531 20.789062 -22.441406 19.65625 -22.921875 C 18.519531 -23.398438 17.300781 -23.640625 16 -23.640625 C 14.71875 -23.640625 13.507812 -23.398438 12.375 -22.921875 C 11.238281 -22.441406 10.242188 -21.769531 9.390625 -20.90625 C 8.523438 -20.039062 7.847656 -19.039062 7.359375 -17.90625 C 6.878906 -16.769531 6.640625 -15.570312 6.640625 -14.3125 C 6.640625 -13.050781 6.878906 -11.851562 7.359375 -10.71875 C 7.847656 -9.582031 8.523438 -8.585938 9.390625 -7.734375 C 10.242188 -6.847656 11.238281 -6.164062 12.375 -5.6875 C 13.507812 -5.207031 14.71875 -4.96875 16 -4.96875 Z M 16 -4.96875 "/></g></g></g><g fill="#ffffff" fill-opacity="1"><g transform="translate(134.612341, 184.939783)"><g><path d="M 5.5 0 C 4.757812 0 4.128906 -0.25 3.609375 -0.75 C 3.085938 -1.25 2.828125 -1.878906 2.828125 -2.640625 L 2.828125 -20.03125 C 2.828125 -21.351562 3.082031 -22.613281 3.59375 -23.8125 C 4.101562 -25.019531 4.820312 -26.082031 5.75 -27 C 6.644531 -27.90625 7.6875 -28.613281 8.875 -29.125 C 10.070312 -29.632812 11.34375 -29.890625 12.6875 -29.890625 C 14.09375 -29.890625 15.414062 -29.609375 16.65625 -29.046875 C 17.90625 -28.484375 19 -27.710938 19.9375 -26.734375 C 20.863281 -27.710938 21.945312 -28.484375 23.1875 -29.046875 C 24.425781 -29.609375 25.75 -29.890625 27.15625 -29.890625 C 28.5 -29.890625 29.78125 -29.632812 31 -29.125 C 32.226562 -28.613281 33.3125 -27.90625 34.25 -27 C 35.175781 -26.082031 35.90625 -25.015625 36.4375 -23.796875 C 36.96875 -22.585938 37.234375 -21.332031 37.234375 -20.03125 L 37.234375 -2.640625 C 37.234375 -1.878906 36.976562 -1.25 36.46875 -0.75 C 35.957031 -0.25 35.332031 0 34.59375 0 C 33.84375 0 33.210938 -0.25 32.703125 -0.75 C 32.191406 -1.25 31.9375 -1.878906 31.9375 -2.640625 L 31.9375 -19.875 C 31.914062 -20.476562 31.78125 -21.054688 31.53125 -21.609375 C 31.28125 -22.160156 30.9375 -22.65625 30.5 -23.09375 C 30.050781 -23.519531 29.535156 -23.847656 28.953125 -24.078125 C 28.378906 -24.304688 27.789062 -24.421875 27.1875 -24.421875 C 26 -24.421875 24.96875 -24.007812 24.09375 -23.1875 C 23.207031 -22.363281 22.722656 -21.363281 22.640625 -20.1875 C 22.660156 -20.164062 22.671875 -20.039062 22.671875 -19.8125 L 22.671875 -2.703125 C 22.671875 -1.960938 22.410156 -1.332031 21.890625 -0.8125 C 21.367188 -0.289062 20.75 -0.03125 20.03125 -0.03125 C 19.289062 -0.03125 18.664062 -0.289062 18.15625 -0.8125 C 17.644531 -1.332031 17.390625 -1.960938 17.390625 -2.703125 L 17.390625 -19.671875 C 17.390625 -20.992188 16.957031 -22.113281 16.09375 -23.03125 C 15.144531 -23.976562 14.039062 -24.453125 12.78125 -24.453125 C 11.613281 -24.453125 10.59375 -24.0625 9.71875 -23.28125 C 8.832031 -22.519531 8.3125 -21.566406 8.15625 -20.421875 C 8.175781 -20.316406 8.1875 -20.222656 8.1875 -20.140625 C 8.195312 -20.066406 8.203125 -20 8.203125 -19.9375 L 8.125 -2.640625 C 8.125 -1.878906 7.867188 -1.25 7.359375 -0.75 C 6.847656 -0.25 6.226562 0 5.5 0 Z M 5.5 0 "/></g></g></g><g fill="#ffffff" fill-opacity="1"><g transform="translate(171.788658, 184.939783)"><g><path d="M 5.5 0 C 4.757812 0 4.128906 -0.25 3.609375 -0.75 C 3.085938 -1.25 2.828125 -1.878906 2.828125 -2.640625 L 2.828125 -20.03125 C 2.828125 -21.351562 3.082031 -22.613281 3.59375 -23.8125 C 4.101562 -25.019531 4.820312 -26.082031 5.75 -27 C 6.644531 -27.90625 7.6875 -28.613281 8.875 -29.125 C 10.070312 -29.632812 11.34375 -29.890625 12.6875 -29.890625 C 14.09375 -29.890625 15.414062 -29.609375 16.65625 -29.046875 C 17.90625 -28.484375 19 -27.710938 19.9375 -26.734375 C 20.863281 -27.710938 21.945312 -28.484375 23.1875 -29.046875 C 24.425781 -29.609375 25.75 -29.890625 27.15625 -29.890625 C 28.5 -29.890625 29.78125 -29.632812 31 -29.125 C 32.226562 -28.613281 33.3125 -27.90625 34.25 -27 C 35.175781 -26.082031 35.90625 -25.015625 36.4375 -23.796875 C 36.96875 -22.585938 37.234375 -21.332031 37.234375 -20.03125 L 37.234375 -2.640625 C 37.234375 -1.878906 36.976562 -1.25 36.46875 -0.75 C 35.957031 -0.25 35.332031 0 34.59375 0 C 33.84375 0 33.210938 -0.25 32.703125 -0.75 C 32.191406 -1.25 31.9375 -1.878906 31.9375 -2.640625 L 31.9375 -19.875 C 31.914062 -20.476562 31.78125 -21.054688 31.53125 -21.609375 C 31.28125 -22.160156 30.9375 -22.65625 30.5 -23.09375 C 30.050781 -23.519531 29.535156 -23.847656 28.953125 -24.078125 C 28.378906 -24.304688 27.789062 -24.421875 27.1875 -24.421875 C 26 -24.421875 24.96875 -24.007812 24.09375 -23.1875 C 23.207031 -22.363281 22.722656 -21.363281 22.640625 -20.1875 C 22.660156 -20.164062 22.671875 -20.039062 22.671875 -19.8125 L 22.671875 -2.703125 C 22.671875 -1.960938 22.410156 -1.332031 21.890625 -0.8125 C 21.367188 -0.289062 20.75 -0.03125 20.03125 -0.03125 C 19.289062 -0.03125 18.664062 -0.289062 18.15625 -0.8125 C 17.644531 -1.332031 17.390625 -1.960938 17.390625 -2.703125 L 17.390625 -19.671875 C 17.390625 -20.992188 16.957031 -22.113281 16.09375 -23.03125 C 15.144531 -23.976562 14.039062 -24.453125 12.78125 -24.453125 C 11.613281 -24.453125 10.59375 -24.0625 9.71875 -23.28125 C 8.832031 -22.519531 8.3125 -21.566406 8.15625 -20.421875 C 8.175781 -20.316406 8.1875 -20.222656 8.1875 -20.140625 C 8.195312 -20.066406 8.203125 -20 8.203125 -19.9375 L 8.125 -2.640625 C 8.125 -1.878906 7.867188 -1.25 7.359375 -0.75 C 6.847656 -0.25 6.226562 0 5.5 0 Z M 5.5 0 "/></g></g></g><g fill="#ff8e2b" fill-opacity="1"><g transform="translate(219.6171, 178.239)"><g><path d="M 9.1875 0 L 2.265625 0 C 1.878906 0 1.554688 -0.132812 1.296875 -0.40625 C 1.046875 -0.6875 0.921875 -1.050781 0.921875 -1.5 C 0.921875 -1.9375 1.046875 -2.285156 1.296875 -2.546875 C 1.546875 -2.804688 1.867188 -2.9375 2.265625 -2.9375 L 8.9375 -2.9375 C 9.1875 -2.9375 9.429688 -2.976562 9.671875 -3.0625 C 9.921875 -3.144531 10.144531 -3.269531 10.34375 -3.4375 C 10.789062 -3.800781 11.015625 -4.285156 11.015625 -4.890625 C 11.015625 -5.460938 10.800781 -5.910156 10.375 -6.234375 C 9.945312 -6.535156 9.472656 -6.691406 8.953125 -6.703125 L 5.859375 -6.703125 C 5.210938 -6.703125 4.601562 -6.828125 4.03125 -7.078125 C 3.46875 -7.335938 2.96875 -7.695312 2.53125 -8.15625 C 2.113281 -8.59375 1.785156 -9.101562 1.546875 -9.6875 C 1.316406 -10.269531 1.203125 -10.878906 1.203125 -11.515625 C 1.203125 -12.140625 1.320312 -12.726562 1.5625 -13.28125 C 1.8125 -13.84375 2.144531 -14.335938 2.5625 -14.765625 C 2.988281 -15.191406 3.484375 -15.519531 4.046875 -15.75 C 4.617188 -15.976562 5.222656 -16.09375 5.859375 -16.09375 L 11.640625 -16.09375 C 12.066406 -16.09375 12.414062 -15.960938 12.6875 -15.703125 C 12.96875 -15.453125 13.109375 -15.109375 13.109375 -14.671875 C 13.109375 -14.242188 12.976562 -13.882812 12.71875 -13.59375 C 12.4375 -13.289062 12.109375 -13.140625 11.734375 -13.140625 L 5.875 -13.140625 C 5.40625 -13.140625 5 -12.96875 4.65625 -12.625 C 4.320312 -12.28125 4.15625 -11.875 4.15625 -11.40625 C 4.15625 -10.894531 4.328125 -10.484375 4.671875 -10.171875 C 5.023438 -9.835938 5.425781 -9.671875 5.875 -9.671875 L 9.234375 -9.671875 C 9.890625 -9.671875 10.507812 -9.539062 11.09375 -9.28125 C 11.6875 -9.03125 12.191406 -8.675781 12.609375 -8.21875 C 13.035156 -7.78125 13.363281 -7.257812 13.59375 -6.65625 C 13.832031 -6.0625 13.953125 -5.453125 13.953125 -4.828125 C 13.953125 -3.460938 13.5 -2.332031 12.59375 -1.4375 C 12.164062 -0.976562 11.65625 -0.625 11.0625 -0.375 C 10.476562 -0.125 9.851562 0 9.1875 0 Z M 9.1875 0 "/></g></g></g><g fill="#ff8e2b" fill-opacity="1"><g transform="translate(232.964303, 178.239)"><g><path d="M 15.703125 0.015625 C 15.285156 0.015625 14.9375 -0.117188 14.65625 -0.390625 C 14.382812 -0.660156 14.25 -1.007812 14.25 -1.4375 L 14.25 -8.21875 C 14.25 -8.90625 14.140625 -9.550781 13.921875 -10.15625 C 13.710938 -10.757812 13.414062 -11.285156 13.03125 -11.734375 C 12.632812 -12.179688 12.160156 -12.53125 11.609375 -12.78125 C 11.054688 -13.039062 10.445312 -13.171875 9.78125 -13.171875 C 9.113281 -13.171875 8.460938 -13.046875 7.828125 -12.796875 C 7.203125 -12.554688 6.640625 -12.21875 6.140625 -11.78125 C 5.640625 -11.332031 5.242188 -10.8125 4.953125 -10.21875 C 4.660156 -9.625 4.515625 -9 4.515625 -8.34375 L 4.515625 -1.46875 C 4.515625 -1.050781 4.375 -0.703125 4.09375 -0.421875 C 3.8125 -0.140625 3.460938 0 3.046875 0 C 2.628906 0 2.273438 -0.140625 1.984375 -0.421875 C 1.703125 -0.703125 1.5625 -1.050781 1.5625 -1.46875 L 1.5625 -20.46875 C 1.5625 -20.894531 1.707031 -21.253906 2 -21.546875 C 2.289062 -21.828125 2.640625 -21.96875 3.046875 -21.96875 C 3.453125 -21.96875 3.800781 -21.828125 4.09375 -21.546875 C 4.375 -21.253906 4.515625 -20.894531 4.515625 -20.46875 L 4.515625 -13.5 C 5.203125 -14.320312 5.992188 -14.957031 6.890625 -15.40625 C 7.796875 -15.863281 8.757812 -16.09375 9.78125 -16.09375 C 10.832031 -16.09375 11.816406 -15.890625 12.734375 -15.484375 C 13.648438 -15.085938 14.441406 -14.523438 15.109375 -13.796875 C 15.765625 -13.085938 16.273438 -12.25 16.640625 -11.28125 C 17.003906 -10.320312 17.1875 -9.3125 17.1875 -8.25 L 17.1875 -1.4375 C 17.1875 -1.007812 17.039062 -0.660156 16.75 -0.390625 C 16.457031 -0.117188 16.109375 0.015625 15.703125 0.015625 Z M 15.703125 0.015625 "/></g></g></g><g fill="#ff8e2b" fill-opacity="1"><g transform="translate(250.498821, 178.239)"><g><path d="M 8.875 0.203125 C 7.769531 0.203125 6.722656 -0.00390625 5.734375 -0.421875 C 4.753906 -0.835938 3.890625 -1.425781 3.140625 -2.1875 C 2.378906 -2.925781 1.785156 -3.796875 1.359375 -4.796875 C 0.941406 -5.796875 0.734375 -6.84375 0.734375 -7.9375 C 0.734375 -9.039062 0.941406 -10.085938 1.359375 -11.078125 C 1.785156 -12.078125 2.378906 -12.957031 3.140625 -13.71875 C 3.890625 -14.46875 4.753906 -15.050781 5.734375 -15.46875 C 6.722656 -15.882812 7.769531 -16.09375 8.875 -16.09375 C 9.988281 -16.09375 11.039062 -15.878906 12.03125 -15.453125 C 13.03125 -15.035156 13.90625 -14.457031 14.65625 -13.71875 C 15.394531 -12.957031 15.972656 -12.082031 16.390625 -11.09375 C 16.804688 -10.101562 17.015625 -9.050781 17.015625 -7.9375 C 17.015625 -6.832031 16.804688 -5.78125 16.390625 -4.78125 C 15.972656 -3.789062 15.394531 -2.925781 14.65625 -2.1875 C 13.90625 -1.4375 13.03125 -0.847656 12.03125 -0.421875 C 11.039062 -0.00390625 9.988281 0.203125 8.875 0.203125 Z M 8.875 -2.75 C 9.601562 -2.75 10.28125 -2.878906 10.90625 -3.140625 C 11.53125 -3.410156 12.082031 -3.789062 12.5625 -4.28125 C 13.039062 -4.757812 13.410156 -5.3125 13.671875 -5.9375 C 13.929688 -6.570312 14.0625 -7.238281 14.0625 -7.9375 C 14.0625 -8.644531 13.929688 -9.3125 13.671875 -9.9375 C 13.410156 -10.5625 13.039062 -11.113281 12.5625 -11.59375 C 12.082031 -12.070312 11.53125 -12.441406 10.90625 -12.703125 C 10.28125 -12.972656 9.601562 -13.109375 8.875 -13.109375 C 8.164062 -13.109375 7.492188 -12.972656 6.859375 -12.703125 C 6.234375 -12.441406 5.679688 -12.070312 5.203125 -11.59375 C 4.722656 -11.113281 4.347656 -10.5625 4.078125 -9.9375 C 3.816406 -9.3125 3.6875 -8.644531 3.6875 -7.9375 C 3.6875 -7.238281 3.816406 -6.570312 4.078125 -5.9375 C 4.347656 -5.3125 4.722656 -4.757812 5.203125 -4.28125 C 5.679688 -3.789062 6.234375 -3.410156 6.859375 -3.140625 C 7.492188 -2.878906 8.164062 -2.75 8.875 -2.75 Z M 8.875 -2.75 "/></g></g></g><g fill="#ff8e2b" fill-opacity="1"><g transform="translate(266.882245, 178.239)"><g><path d="M 2.984375 5.796875 C 2.578125 5.796875 2.222656 5.644531 1.921875 5.34375 C 1.628906 5.050781 1.484375 4.6875 1.484375 4.25 L 1.484375 -7.9375 C 1.484375 -9.039062 1.691406 -10.085938 2.109375 -11.078125 C 2.535156 -12.078125 3.128906 -12.957031 3.890625 -13.71875 C 4.628906 -14.457031 5.5 -15.035156 6.5 -15.453125 C 7.5 -15.878906 8.546875 -16.09375 9.640625 -16.09375 C 10.742188 -16.09375 11.789062 -15.878906 12.78125 -15.453125 C 13.78125 -15.035156 14.65625 -14.457031 15.40625 -13.71875 C 16.144531 -12.957031 16.722656 -12.082031 17.140625 -11.09375 C 17.554688 -10.101562 17.765625 -9.050781 17.765625 -7.9375 C 17.765625 -6.832031 17.554688 -5.78125 17.140625 -4.78125 C 16.722656 -3.789062 16.144531 -2.925781 15.40625 -2.1875 C 14.65625 -1.4375 13.78125 -0.847656 12.78125 -0.421875 C 11.789062 -0.00390625 10.742188 0.203125 9.640625 0.203125 C 8.640625 0.203125 7.695312 0.0390625 6.8125 -0.28125 C 5.9375 -0.601562 5.140625 -1.070312 4.421875 -1.6875 L 4.421875 4.25 C 4.421875 4.6875 4.285156 5.050781 4.015625 5.34375 C 3.753906 5.644531 3.410156 5.796875 2.984375 5.796875 Z M 9.640625 -2.75 C 10.359375 -2.75 11.03125 -2.878906 11.65625 -3.140625 C 12.289062 -3.410156 12.847656 -3.789062 13.328125 -4.28125 C 13.804688 -4.757812 14.175781 -5.3125 14.4375 -5.9375 C 14.695312 -6.570312 14.828125 -7.238281 14.828125 -7.9375 C 14.828125 -8.644531 14.695312 -9.3125 14.4375 -9.9375 C 14.175781 -10.5625 13.804688 -11.113281 13.328125 -11.59375 C 12.847656 -12.070312 12.289062 -12.441406 11.65625 -12.703125 C 11.03125 -12.972656 10.359375 -13.109375 9.640625 -13.109375 C 8.929688 -13.109375 8.257812 -12.972656 7.625 -12.703125 C 6.988281 -12.441406 6.429688 -12.070312 5.953125 -11.59375 C 5.472656 -11.113281 5.097656 -10.5625 4.828125 -9.9375 C 4.566406 -9.3125 4.4375 -8.644531 4.4375 -7.9375 C 4.4375 -7.238281 4.566406 -6.570312 4.828125 -5.9375 C 5.097656 -5.3125 5.472656 -4.757812 5.953125 -4.28125 C 6.429688 -3.789062 6.988281 -3.410156 7.625 -3.140625 C 8.257812 -2.878906 8.929688 -2.75 9.640625 -2.75 Z M 9.640625 -2.75 "/></g></g></g><g fill="#ff8e2b" fill-opacity="1"><g transform="translate(284.016382, 178.239)"><g><path d="M 2.984375 5.796875 C 2.578125 5.796875 2.222656 5.644531 1.921875 5.34375 C 1.628906 5.050781 1.484375 4.6875 1.484375 4.25 L 1.484375 -7.9375 C 1.484375 -9.039062 1.691406 -10.085938 2.109375 -11.078125 C 2.535156 -12.078125 3.128906 -12.957031 3.890625 -13.71875 C 4.628906 -14.457031 5.5 -15.035156 6.5 -15.453125 C 7.5 -15.878906 8.546875 -16.09375 9.640625 -16.09375 C 10.742188 -16.09375 11.789062 -15.878906 12.78125 -15.453125 C 13.78125 -15.035156 14.65625 -14.457031 15.40625 -13.71875 C 16.144531 -12.957031 16.722656 -12.082031 17.140625 -11.09375 C 17.554688 -10.101562 17.765625 -9.050781 17.765625 -7.9375 C 17.765625 -6.832031 17.554688 -5.78125 17.140625 -4.78125 C 16.722656 -3.789062 16.144531 -2.925781 15.40625 -2.1875 C 14.65625 -1.4375 13.78125 -0.847656 12.78125 -0.421875 C 11.789062 -0.00390625 10.742188 0.203125 9.640625 0.203125 C 8.640625 0.203125 7.695312 0.0390625 6.8125 -0.28125 C 5.9375 -0.601562 5.140625 -1.070312 4.421875 -1.6875 L 4.421875 4.25 C 4.421875 4.6875 4.285156 5.050781 4.015625 5.34375 C 3.753906 5.644531 3.410156 5.796875 2.984375 5.796875 Z M 9.640625 -2.75 C 10.359375 -2.75 11.03125 -2.878906 11.65625 -3.140625 C 12.289062 -3.410156 12.847656 -3.789062 13.328125 -4.28125 C 13.804688 -4.757812 14.175781 -5.3125 14.4375 -5.9375 C 14.695312 -6.570312 14.828125 -7.238281 14.828125 -7.9375 C 14.828125 -8.644531 14.695312 -9.3125 14.4375 -9.9375 C 14.175781 -10.5625 13.804688 -11.113281 13.328125 -11.59375 C 12.847656 -12.070312 12.289062 -12.441406 11.65625 -12.703125 C 11.03125 -12.972656 10.359375 -13.109375 9.640625 -13.109375 C 8.929688 -13.109375 8.257812 -12.972656 7.625 -12.703125 C 6.988281 -12.441406 6.429688 -12.070312 5.953125 -11.59375 C 5.472656 -11.113281 5.097656 -10.5625 4.828125 -9.9375 C 4.566406 -9.3125 4.4375 -8.644531 4.4375 -7.9375 C 4.4375 -7.238281 4.566406 -6.570312 4.828125 -5.9375 C 5.097656 -5.3125 5.472656 -4.757812 5.953125 -4.28125 C 6.429688 -3.789062 6.988281 -3.410156 7.625 -3.140625 C 8.257812 -2.878906 8.929688 -2.75 9.640625 -2.75 Z M 9.640625 -2.75 "/></g></g></g><g fill="#ff8e2b" fill-opacity="1"><g transform="translate(301.150524, 178.239)"><g><path d="M 3.203125 -18.078125 C 2.742188 -18.078125 2.347656 -18.242188 2.015625 -18.578125 C 1.679688 -18.910156 1.515625 -19.296875 1.515625 -19.734375 C 1.515625 -20.191406 1.679688 -20.585938 2.015625 -20.921875 C 2.335938 -21.242188 2.734375 -21.40625 3.203125 -21.40625 C 3.640625 -21.40625 4.035156 -21.242188 4.390625 -20.921875 C 4.722656 -20.609375 4.890625 -20.210938 4.890625 -19.734375 C 4.890625 -19.285156 4.722656 -18.898438 4.390625 -18.578125 C 4.046875 -18.242188 3.648438 -18.078125 3.203125 -18.078125 Z M 3.203125 0.109375 C 2.796875 0.109375 2.441406 -0.03125 2.140625 -0.3125 C 1.847656 -0.59375 1.703125 -0.9375 1.703125 -1.34375 L 1.703125 -14.609375 C 1.703125 -15.035156 1.851562 -15.390625 2.15625 -15.671875 C 2.445312 -15.953125 2.800781 -16.09375 3.21875 -16.09375 C 3.625 -16.09375 3.960938 -15.945312 4.234375 -15.65625 C 4.515625 -15.375 4.65625 -15.023438 4.65625 -14.609375 L 4.65625 -1.34375 C 4.65625 -0.9375 4.507812 -0.59375 4.21875 -0.3125 C 3.9375 -0.03125 3.597656 0.109375 3.203125 0.109375 Z M 3.203125 0.109375 "/></g></g></g><g fill="#ff8e2b" fill-opacity="1"><g transform="translate(306.173151, 178.239)"><g><path d="M 2.671875 0 C 2.242188 0 1.894531 -0.140625 1.625 -0.421875 C 1.3125 -0.691406 1.15625 -1.035156 1.15625 -1.453125 L 1.15625 -8.25 C 1.15625 -9.3125 1.347656 -10.320312 1.734375 -11.28125 C 2.117188 -12.238281 2.664062 -13.078125 3.375 -13.796875 C 4.082031 -14.523438 4.898438 -15.085938 5.828125 -15.484375 C 6.765625 -15.890625 7.765625 -16.09375 8.828125 -16.09375 C 9.890625 -16.09375 10.890625 -15.890625 11.828125 -15.484375 C 12.773438 -15.085938 13.609375 -14.523438 14.328125 -13.796875 C 15.035156 -13.078125 15.582031 -12.238281 15.96875 -11.28125 C 16.351562 -10.320312 16.546875 -9.3125 16.546875 -8.25 L 16.546875 -1.453125 C 16.546875 -1.023438 16.40625 -0.675781 16.125 -0.40625 C 15.851562 -0.132812 15.507812 0 15.09375 0 C 14.6875 0 14.335938 -0.132812 14.046875 -0.40625 C 13.753906 -0.675781 13.609375 -1.023438 13.609375 -1.453125 L 13.609375 -8.203125 C 13.597656 -8.867188 13.472656 -9.503906 13.234375 -10.109375 C 12.992188 -10.710938 12.660156 -11.238281 12.234375 -11.6875 C 11.785156 -12.132812 11.269531 -12.484375 10.6875 -12.734375 C 10.101562 -12.992188 9.484375 -13.125 8.828125 -13.125 C 7.472656 -13.125 6.347656 -12.65625 5.453125 -11.71875 C 5.023438 -11.269531 4.691406 -10.742188 4.453125 -10.140625 C 4.222656 -9.546875 4.109375 -8.914062 4.109375 -8.25 L 4.109375 -1.453125 C 4.109375 -1.023438 3.96875 -0.675781 3.6875 -0.40625 C 3.414062 -0.132812 3.078125 0 2.671875 0 Z M 2.671875 0 "/></g></g></g><g fill="#ff8e2b" fill-opacity="1"><g transform="translate(322.956951, 178.239)"><g><path d="M 5.1875 7.296875 C 4.78125 7.296875 4.425781 7.144531 4.125 6.84375 C 3.976562 6.707031 3.859375 6.546875 3.765625 6.359375 C 3.679688 6.171875 3.640625 5.984375 3.640625 5.796875 C 3.640625 5.265625 3.921875 4.8125 4.484375 4.4375 C 4.972656 4.113281 5.617188 3.847656 6.421875 3.640625 C 6.742188 3.554688 7.054688 3.503906 7.359375 3.484375 C 7.671875 3.460938 8.050781 3.453125 8.5 3.453125 L 9.265625 3.453125 C 9.347656 3.460938 9.457031 3.46875 9.59375 3.46875 C 9.726562 3.46875 9.882812 3.46875 10.0625 3.46875 C 12.695312 3.46875 14.015625 2.476562 14.015625 0.5 C 14.015625 0.0507812 13.957031 -0.3125 13.84375 -0.59375 C 13.820312 -0.65625 13.796875 -0.71875 13.765625 -0.78125 C 13.742188 -0.84375 13.710938 -0.898438 13.671875 -0.953125 L 13.484375 -1.234375 C 12.097656 -0.273438 10.5625 0.203125 8.875 0.203125 C 7.769531 0.203125 6.722656 -0.00390625 5.734375 -0.421875 C 4.753906 -0.835938 3.890625 -1.425781 3.140625 -2.1875 C 2.378906 -2.925781 1.785156 -3.796875 1.359375 -4.796875 C 0.941406 -5.796875 0.734375 -6.84375 0.734375 -7.9375 C 0.734375 -9.039062 0.941406 -10.085938 1.359375 -11.078125 C 1.785156 -12.078125 2.378906 -12.957031 3.140625 -13.71875 C 3.890625 -14.46875 4.753906 -15.050781 5.734375 -15.46875 C 6.722656 -15.882812 7.769531 -16.09375 8.875 -16.09375 C 9.988281 -16.09375 11.039062 -15.878906 12.03125 -15.453125 C 13.03125 -15.035156 13.90625 -14.457031 14.65625 -13.71875 C 15.394531 -12.957031 15.972656 -12.082031 16.390625 -11.09375 C 16.804688 -10.101562 17.015625 -9.050781 17.015625 -7.9375 C 17.015625 -6.3125 16.550781 -4.789062 15.625 -3.375 C 16.488281 -2.4375 16.921875 -1.15625 16.921875 0.46875 C 16.921875 1.40625 16.765625 2.242188 16.453125 2.984375 C 16.140625 3.734375 15.703125 4.367188 15.140625 4.890625 C 14.597656 5.390625 13.976562 5.765625 13.28125 6.015625 C 12.582031 6.273438 11.847656 6.40625 11.078125 6.40625 C 10.671875 6.40625 10.238281 6.375 9.78125 6.3125 C 9.53125 6.289062 9.289062 6.269531 9.0625 6.25 C 8.832031 6.226562 8.625 6.21875 8.4375 6.21875 C 7.507812 6.21875 6.722656 6.457031 6.078125 6.9375 C 5.828125 7.175781 5.53125 7.296875 5.1875 7.296875 Z M 8.875 -2.75 C 9.601562 -2.75 10.28125 -2.878906 10.90625 -3.140625 C 11.539062 -3.410156 12.097656 -3.789062 12.578125 -4.28125 C 13.054688 -4.757812 13.425781 -5.3125 13.6875 -5.9375 C 13.945312 -6.570312 14.078125 -7.238281 14.078125 -7.9375 C 14.078125 -8.644531 13.945312 -9.3125 13.6875 -9.9375 C 13.425781 -10.5625 13.054688 -11.113281 12.578125 -11.59375 C 12.097656 -12.070312 11.539062 -12.441406 10.90625 -12.703125 C 10.28125 -12.972656 9.601562 -13.109375 8.875 -13.109375 C 8.164062 -13.109375 7.492188 -12.972656 6.859375 -12.703125 C 6.234375 -12.441406 5.679688 -12.070312 5.203125 -11.59375 C 4.722656 -11.113281 4.347656 -10.5625 4.078125 -9.9375 C 3.816406 -9.3125 3.6875 -8.644531 3.6875 -7.9375 C 3.6875 -7.238281 3.816406 -6.570312 4.078125 -5.9375 C 4.347656 -5.3125 4.722656 -4.757812 5.203125 -4.28125 C 5.679688 -3.789062 6.234375 -3.410156 6.859375 -3.140625 C 7.492188 -2.878906 8.164062 -2.75 8.875 -2.75 Z M 8.875 -2.75 "/></g></g></g></svg>